<svg width="441" height="42" viewBox="0 0 441 42" fill="none" xmlns="http://www.w3.org/2000/svg">
<g clip-path="url(#clip0_1101_3029)">
<path d="M39.1608 33.4619H8.09676C7.77924 33.4619 7.5852 33.3202 7.5852 33.0013V1.39945C7.5852 1.0806 7.44408 0.885742 7.07364 0.885742H0.51156C0.1764 0.903456 0 1.0806 0 1.39945V40.5829C0 40.9018 0.1764 41.0966 0.51156 41.0966H36.9734C37.1146 41.0966 37.2557 41.0081 37.291 40.8663L39.4783 33.9224C39.5665 33.639 39.4254 33.4619 39.1608 33.4619Z" fill="#E6D090"/>
<path d="M154.12 24.7819C153.291 23.4534 152.251 22.3374 150.91 21.434C149.587 20.566 148.07 19.822 146.429 19.326C144.736 18.8123 142.99 18.4049 141.261 18.1392C139.479 17.8558 137.786 17.6786 136.092 17.6255C134.399 17.5369 132.882 17.4838 131.506 17.4838C127.061 17.4838 123.533 17.1649 120.975 16.4741C118.417 15.7301 117.129 14.6318 117.129 13.073C117.129 12.5238 117.306 11.9216 117.729 11.2838C118.1 10.6461 118.876 10.097 120.058 9.53016C121.204 8.98102 122.845 8.5736 124.997 8.2016C127.096 7.82961 129.901 7.65247 133.323 7.65247C135.422 7.65247 137.486 7.79418 139.409 8.11303C141.331 8.48503 143.078 8.85702 144.683 9.35302C146.324 9.81358 147.699 10.3273 148.899 10.8764C150.081 11.3901 150.998 11.8861 151.686 12.2581C151.739 12.2581 151.739 12.3113 151.774 12.3113C151.774 12.3644 151.827 12.3644 151.827 12.3644C152.109 12.3644 152.198 12.2227 152.109 11.9924L151.563 3.80852C151.563 3.63138 151.51 3.57824 151.421 3.57824C151.104 3.43652 150.504 3.17081 149.499 2.74568C148.493 2.37368 147.206 1.96626 145.653 1.59426C144.048 1.18684 142.266 0.814846 140.202 0.495993C138.086 0.141712 135.792 0 133.323 0C130.571 0 127.784 0.17714 124.944 0.602278C122.104 0.974272 119.546 1.66512 117.288 2.62168C114.995 3.59595 113.125 4.9245 111.696 6.62505C110.232 8.3256 109.491 10.4867 109.491 13.0553C109.491 13.6044 109.579 14.2598 109.668 15.0747C109.756 15.8541 110.073 16.7221 110.532 17.6078C110.991 18.5289 111.679 19.3969 112.596 20.318C113.566 21.186 114.836 21.9654 116.441 22.7094C118.082 23.4003 120.11 24.0025 122.527 24.4631C124.997 24.8705 127.978 25.1008 131.453 25.1008C134.293 25.1008 136.727 25.1894 138.685 25.4197C140.661 25.6499 142.249 25.9688 143.589 26.3408C144.824 26.7128 145.794 27.1733 146.376 27.6693C146.923 28.183 147.241 28.679 147.241 29.2282C147.241 30.787 146.041 32.027 143.625 32.9481C141.243 33.8693 137.945 34.3652 133.729 34.3652C130.483 34.3652 127.59 34.135 125.032 33.7275C122.474 33.3201 120.216 32.8064 118.346 32.2573C116.424 31.7081 114.871 31.159 113.672 30.5567C112.437 30.0076 111.573 29.6002 111.061 29.2636C111.008 29.2636 111.008 29.2636 110.973 29.2636C110.973 29.2105 110.92 29.2105 110.92 29.2105C110.744 29.2105 110.638 29.3522 110.638 29.5825L111.467 38.0852C111.467 38.1738 111.52 38.2269 111.608 38.3155C111.926 38.4572 112.666 38.7229 113.813 39.0949C114.907 39.5023 116.424 39.9275 118.294 40.3349C120.163 40.7423 122.421 41.1143 124.979 41.4331C127.59 41.8051 130.483 41.9469 133.729 41.9469C137.027 41.9469 139.814 41.7166 142.16 41.2029C144.542 40.6892 146.518 40.0515 148.07 39.272C149.675 38.4926 150.963 37.6246 151.915 36.6504C152.886 35.6761 153.556 34.7727 154.067 33.8515C154.579 32.9304 154.897 32.0624 155.038 31.283C155.179 30.5036 155.267 29.9013 155.267 29.4939C155.302 27.6871 154.897 26.1282 154.12 24.7819Z" fill="#E6D090"/>
<path d="M207.499 0.86792H201.219C200.813 0.86792 200.584 1.0982 200.584 1.55877V21.8413C200.584 24.1796 200.126 26.1104 199.208 27.687C198.291 29.299 197.109 30.5921 195.68 31.5486C194.216 32.5583 192.558 33.3023 190.741 33.7098C188.871 34.1703 187.037 34.4006 185.149 34.4006C183.279 34.4006 181.392 34.1703 179.557 33.7098C177.723 33.3023 176.082 32.5583 174.618 31.5486C173.154 30.5744 172.007 29.299 171.09 27.687C170.173 26.1281 169.714 24.1973 169.714 21.8413V1.55877C169.714 1.38163 169.626 1.18677 169.485 1.04506C169.397 0.95649 169.203 0.86792 169.026 0.86792H162.746C162.341 0.86792 162.111 1.0982 162.111 1.55877V21.8413C162.111 24.8705 162.658 27.6338 163.752 30.0784C164.846 32.5583 166.415 34.684 168.426 36.42C170.437 38.1737 172.872 39.5554 175.712 40.512C178.552 41.5217 181.709 41.9822 185.149 41.9822C188.589 41.9822 191.694 41.5217 194.534 40.512C197.374 39.5377 199.755 38.1737 201.766 36.42C203.777 34.6663 205.382 32.5583 206.476 30.0784C207.57 27.6338 208.169 24.8882 208.169 21.8413V1.55877C208.187 1.0982 207.958 0.86792 207.499 0.86792Z" fill="#E6D090"/>
<path d="M259.061 1.41706C259.061 1.04506 258.884 0.86792 258.514 0.86792H252.005C251.634 0.86792 251.458 1.04506 251.458 1.41706L251.546 28.6435C251.546 28.7321 251.458 28.7853 251.37 28.7853C251.282 28.7853 251.229 28.7853 251.193 28.7321L222.846 1.0982C222.793 1.00963 222.705 0.921062 222.475 0.921062H216.937C216.566 0.921062 216.39 1.0982 216.39 1.4702V40.5651C216.39 40.9371 216.566 41.1142 216.937 41.1142H223.34C223.746 41.1142 223.94 40.9371 223.94 40.5651V13.1438C223.94 13.0552 223.992 13.002 224.028 12.9666C224.081 12.9135 224.169 12.9666 224.204 13.0198L252.834 40.9194C252.922 41.0611 253.063 41.0965 253.24 41.0965H258.514C258.92 41.0965 259.114 40.9194 259.114 40.4942L259.061 1.41706Z" fill="#E6D090"/>
<path d="M323.658 24.8175C322.882 23.4889 321.824 22.3729 320.501 21.4518C319.178 20.5838 317.661 19.8398 315.967 19.3438C314.327 18.8301 312.58 18.4227 310.834 18.157C309.052 17.8736 307.359 17.6964 305.666 17.6433C303.972 17.5547 302.455 17.5016 301.079 17.5016C296.634 17.5016 293.106 17.1827 290.548 16.4919C287.99 15.7479 286.703 14.6496 286.703 13.0908C286.703 12.5416 286.879 11.9393 287.249 11.3016C287.655 10.6639 288.431 10.1148 289.578 9.54795C290.76 8.99882 292.418 8.57368 294.517 8.2194C296.669 7.8474 299.456 7.67026 302.896 7.67026C304.995 7.67026 307.024 7.81197 308.947 8.13083C310.869 8.50282 312.651 8.87482 314.256 9.37081C315.861 9.83138 317.273 10.3451 318.472 10.8942C319.654 11.4079 320.571 11.9039 321.259 12.2759L321.312 12.3291C321.365 12.3822 321.365 12.3822 321.4 12.3822C321.683 12.3822 321.771 12.2405 321.683 12.0102L321.136 3.82631C321.136 3.64917 321.083 3.59603 320.995 3.59603C320.677 3.45432 320.024 3.18861 319.072 2.76347C318.066 2.39148 316.779 1.98405 315.226 1.61206C313.621 1.20464 311.787 0.832641 309.723 0.513788C307.659 0.194935 305.366 0.0532227 302.896 0.0532227C300.144 0.0532227 297.357 0.230363 294.517 0.6555C291.677 1.0275 289.119 1.71834 286.826 2.6749C284.586 3.64917 282.698 4.97773 281.287 6.67828C279.823 8.37882 279.082 10.5399 279.082 13.1085C279.082 13.6576 279.135 14.2953 279.258 15.1279C279.347 15.9073 279.629 16.7753 280.088 17.661C280.546 18.5821 281.269 19.4501 282.187 20.3712C283.104 21.2392 284.392 22.0186 286.032 22.7626C287.673 23.4535 289.701 24.0558 292.118 24.5163C294.552 24.9237 297.516 25.154 301.044 25.154C303.884 25.154 306.265 25.2426 308.241 25.4729C310.252 25.7032 311.857 26.022 313.145 26.394C314.433 26.766 315.385 27.2266 315.932 27.7226C316.532 28.2363 316.849 28.7323 316.849 29.2814C316.849 30.8402 315.614 32.0802 313.233 33.0013C310.852 33.9225 307.518 34.4185 303.302 34.4185C300.091 34.4185 297.216 34.1882 294.641 33.7808C292.083 33.3733 289.825 32.8596 287.902 32.3105C286.032 31.7614 284.462 31.2122 283.227 30.6099C282.046 30.0608 281.164 29.6357 280.67 29.3168C280.617 29.3168 280.617 29.3168 280.581 29.3168C280.581 29.2637 280.529 29.2637 280.493 29.2637C280.317 29.2637 280.211 29.4054 280.211 29.6357L281.04 38.1384C281.04 38.227 281.128 38.2801 281.216 38.3687C281.534 38.5104 282.275 38.7761 283.369 39.1481C284.515 39.5555 286.032 39.9807 287.902 40.3881C289.772 40.7955 292.03 41.1675 294.588 41.4864C297.198 41.8584 300.091 42.0001 303.284 42.0001C306.583 42.0001 309.423 41.7698 311.751 41.2561C314.08 40.7424 316.055 40.1047 317.661 39.3253C319.266 38.5458 320.554 37.6779 321.506 36.7036C322.424 35.7293 323.147 34.8259 323.658 33.9048C324.17 32.9836 324.487 32.1156 324.629 31.3362C324.77 30.5568 324.858 29.9545 324.858 29.5471C324.893 27.7048 324.487 26.146 323.658 24.8175Z" fill="#E6D090"/>
<path d="M376.543 40.6715L355.428 19.5209C355.34 19.3438 355.34 19.2375 355.428 19.1135L373.438 1.31088C373.491 1.22231 373.527 1.13374 373.491 1.02745C373.438 0.938884 373.35 0.885742 373.262 0.885742H363.137C363.084 0.885742 362.995 0.938884 362.995 0.938884L340.328 23.3826C340.275 23.4357 340.187 23.4711 340.099 23.4711C339.922 23.4711 339.817 23.3826 339.817 23.1523V1.36402C339.817 1.04517 339.675 0.903456 339.411 0.903456H332.672C332.39 0.903456 332.267 1.04517 332.267 1.36402V40.6892C332.267 41.0081 332.408 41.1498 332.672 41.1498H339.411C339.693 41.1498 339.817 41.0081 339.817 40.6892V34.7196C339.817 34.5779 339.869 34.5424 339.905 34.4893L349.607 24.8706C349.695 24.782 349.748 24.782 349.836 24.782C349.889 24.782 349.977 24.782 350.065 24.8706L366.365 41.0612C366.453 41.1143 366.506 41.1498 366.541 41.1498H376.349C376.437 41.1498 376.49 41.0966 376.578 40.9726C376.631 40.8663 376.631 40.7601 376.543 40.6715Z" fill="#E6D090"/>
<path d="M389.086 0.90332H382.259C381.977 0.90332 381.889 1.04503 381.889 1.31074V40.7599C381.889 40.9902 381.977 41.1319 382.259 41.1319H389.086C389.315 41.1319 389.456 40.9902 389.456 40.7599V1.31074C389.456 1.02732 389.315 0.90332 389.086 0.90332Z" fill="#E6D090"/>
<path d="M440.947 1.45246C440.947 1.08046 440.77 0.90332 440.4 0.90332H433.891C433.52 0.90332 433.344 1.08046 433.344 1.45246L433.397 28.6789C433.397 28.7675 433.344 28.8207 433.256 28.8207C433.167 28.8207 433.115 28.8207 433.079 28.7675L404.732 1.1336C404.679 1.04503 404.555 0.956462 404.326 0.956462H398.787C398.417 0.956462 398.24 1.1336 398.24 1.5056V40.6005C398.24 40.9725 398.417 41.1496 398.787 41.1496H405.243C405.614 41.1496 405.843 40.9725 405.843 40.6005V13.1792C405.843 13.0906 405.843 13.0374 405.931 13.002C405.984 12.9489 406.019 13.002 406.108 13.0552L434.72 40.9725C434.808 41.1142 434.896 41.1496 435.09 41.1496H440.4C440.77 41.1496 441 40.9725 441 40.5474L440.947 1.45246Z" fill="#E6D090"/>
<path d="M72.5356 1.1336C72.4474 0.991891 72.3063 0.90332 72.1299 0.90332H63.892C63.8038 0.90332 63.6627 0.991891 63.5216 1.1336L43.9059 40.4942C43.853 40.6359 43.853 40.7776 43.9059 40.9016C43.9941 41.0788 44.1352 41.1319 44.3116 41.1319H51.8086C51.9497 41.1319 52.0909 41.0433 52.2143 40.8485L67.9316 9.38835C68.0198 9.21121 68.108 9.21121 68.2138 9.38835L83.8958 40.8485C83.984 41.0256 84.0722 41.1319 84.2662 41.1319H91.8161C91.9573 41.1319 92.0984 41.0788 92.1866 40.9016C92.2748 40.7599 92.2748 40.6182 92.1866 40.4942L72.5356 1.1336Z" fill="#E6D090"/>
<path d="M57.383 30.5389C68.1258 20.991 72.183 33.94 79.3977 28.7321C79.3977 28.7321 80.756 29.1041 79.7858 29.9898C68.8314 39.9982 66.0619 26.6064 55.9365 33.4086L57.383 30.5389Z" fill="#E6D090"/>
</g>
<defs>
<clipPath id="clip0_1101_3029">
<rect width="441" height="42" fill="white"/>
</clipPath>
</defs>
</svg>
